<?xml version="1.0" encoding="utf-8" ?>
<svg baseProfile="tiny" height="100%" version="1.2" width="100%" xmlns="http://www.w3.org/2000/svg" xmlns:ev="http://www.w3.org/2001/xml-events" xmlns:xlink="http://www.w3.org/1999/xlink"><defs /><path d="M 41.942,68.98 C 37.584,74.21900000000001 33.91,80.0 31.114,86.269" fill="none" stroke="black" /><path d="M 31.114,86.269 C 23.136000000000003,104.156 22.448,128.023 30.39,146.018" fill="none" stroke="black" /><path d="M 30.39,146.018 C 32.226,150.179 34.409,154.115 36.891,157.808" fill="none" stroke="black" /><path d="M 176.5,67.5 C 171.555,60.218 165.893,53.421 158.893,48.348" fill="none" stroke="black" /><path d="M 158.893,48.348 C 125.487,24.137 69.766,35.53 41.94200000000001,68.98" fill="none" stroke="black" /><path d="M 36.891,157.808 C 64.31,198.601 128.306,209.766 166.5,167.5" fill="none" stroke="black" /><path d="M 42.964,70.031 C 53.818,82.98100000000001 72.618,71.863 80.894,95.184" fill="none" stroke="black" /><path d="M 80.894,95.184 C 84.384,105.02 81.92200000000001,122.488 78.67500000000001,132.286" fill="none" stroke="black" /><path d="M 78.67500000000001,132.286 C 70.54500000000002,156.818 52.74600000000001,144.905 38.04100000000001,156.835" fill="none" stroke="black" /><path d="M 38.04100000000001,156.835 C 37.65766666666668,157.15933333333334 37.274333333333345,157.4836666666667 36.89100000000001,157.80800000000002" fill="none" stroke="black" /><path d="M 166.5,167.5 C 184.026,146.046 190.851,129.77100000000002 189.97,106.952" fill="none" stroke="black" /><path d="M 189.97,106.952 C 189.424,92.814 185.394,80.666 176.5,67.5" fill="none" stroke="black" /><path d="M 176.5,67.5 C 162.824,84.239 142.542,70.7 124.12700000000001,82.523" fill="none" stroke="black" /><path d="M 124.12700000000001,82.523 C 101.58800000000001,96.993 100.88000000000001,125.77799999999999 119.06200000000001,142.128" fill="none" stroke="black" /><path d="M 119.06200000000001,142.128 C 132.572,154.27599999999998 154.293,151.112 165.864,166.80499999999998" fill="none" stroke="black" /><path d="M 165.864,166.80499999999998 C 166.076,167.03699999999998 166.288,167.26899999999998 166.5,167.50099999999998" fill="none" stroke="black" /><path d="M 13.245,227.755 C 7.16,152.655 2.124,76.843 1.5,1.5" fill="none" stroke="black" /><path d="M 224.647,215.68 C 188.164,223.417 151.005,227.398 113.922,231.36700000000002" fill="none" stroke="black" /><path d="M 113.922,231.36700000000002 C 103.26899999999999,232.507 92.589,233.64900000000003 81.876,233.579" fill="none" stroke="black" /><path d="M 81.876,233.579 C 73.447,233.524 65.043,232.719 56.652,231.91500000000002" fill="none" stroke="black" /><path d="M 56.652,231.91500000000002 C 42.183,230.52800000000002 27.714000000000002,229.14100000000002 13.245000000000005,227.75500000000002" fill="none" stroke="black" /><path d="M 216.777,2.107 C 231.219,72.069 227.96599999999998,144.319 224.647,215.68" fill="none" stroke="black" /><path d="M 1.562,1.876 C 73.301,1.9529999999999998 145.03900000000002,2.03 216.77800000000002,2.1069999999999998" fill="none" stroke="black" /></svg>